<svg xmlns="http://www.w3.org/2000/svg" viewBox="0 0 3840 2160">
<defs>
<linearGradient id="traceBlueLight" x1="0" y1="0" x2="1" y2="0">
<stop offset="0" stop-color="#00c8ff" stop-opacity="0.04"/>
<stop offset="1" stop-color="#008cff" stop-opacity="0.08"/>
</linearGradient>
<linearGradient id="traceBlueStrong" x1="0" y1="0" x2="0" y2="1">
<stop offset="0" stop-color="#008cff" stop-opacity="0.12"/>
<stop offset="1" stop-color="#00c8ff" stop-opacity="0.06"/>
</linearGradient>
<linearGradient <linearGradient id="traceGreen" x1="0" y1="0" x2="1" y2="1">
<stop offset="0" stop-color="#14f195" ​​stop-opacity="0.06"/>
<stop offset="1" stop-color="#14f195" ​​stop-opacity="0.12"/>
</linearGradient>
<linearGradient id="traceBlueDiagonal" x1="0" y1="0" x2="1" y2="1">
<stop offset="0" stop-color="#008cff" stop-opacity="0.1"/>
<stop offset="1" stop-color="#00c8ff" stop-opacity="0.04"/>
</linearGradient>
<linearGradient id="traceBlueSoft" x1="0" y1="0" x2="1" y2="0">
<stop offset="0" stop-color="#008cff" stop-opacity="0.05"/>
<stop offset="1" stop-color="#00c8ff" stop-opacity="0.03"/>
</linearGradient>
<linearGradient id="traceGreenSoft" x1="0" y1="0" x2="1" y2="0">
<stop offset="0" stop-color="#14f195" ​​stop-opacity="0.04"/>
<stop offset="1" stop-color="#14f195" ​​stop-opacity="0.02"/>
</linearGradient>
<linearGradient id="traceBlueVertical" x1="0" y1="0" x2="0" y2="1">
<stop offset="0" stop-color="#008cff" stop-opacity="0.06"/>
<stop offset="1" stop-color="#00c8ff" stop-opacity="0.03"/>
</linearGradient>

<pattern id="minorGrid" x="0" y="0" width="40" height="40" patternUnits="userSpaceOnUse">
<path d="M0 0H40" stroke="#008cff" stroke-width="0.5" stroke-opacity="0.04"/>
<path d="M0 0V40" stroke="#008cff" stroke-width="0.5" stroke-opacity="0.04"/>
</pattern>
<pattern id="majorGrid" x="0" y="0" width="160" height="160" patternUnits="userSpaceOnUse">
<path d="M0 0H160" stroke="#00c8ff" stroke-width="0.7" stroke-opacity="0.05"/>
<path d="M0 0V160" stroke="#00c8ff" stroke-width="0.7" stroke-opacity="0.05"/>
</pattern>

<circle id="microDotSmall" r="2" fill="#00c8ff" fill-opacity="0.06"/>
<circle id="microDotTiny" r="1.4" fill="#008cff" fill-opacity="0.07"/>
<circle id="microDotGreen" r="1.8" fill="#14f195" ​​fill-opacity="0.08"/>

<rect id="padSmall" x="-5" y="-3" width="10" height="6" rx="2" ry="2" fill="#008cff" fill-opacity="0.08"/>
<rect id="padMedium" x="-8" y="-4" width="16" height="8" rx="3" ry="3" fill="#00c8ff" fill-opacity="0.08"/>
<rect id="padLong" x="-12" y="-4" width="24" height="8" rx="3" ry="3" fill="#14f195" ​​fill-opacity="0.06"/>

<rect id="viaRing" x="-3.5" y="-3.5" width="7" height="7" rx="3.5" ry="3.5" fill="none" stroke="#00c8ff" stroke-width="0.8" stroke-opacity="0.11"/>
<rect id="viaRingGreen" x="-3.5" y="-3.5" width="7" height="7" rx="3.5" ry="3.5" fill="none" stroke="#14f195" ​​stroke-width="0.8" stroke-opacity="0.08"/>

<rect id="roundedModuleThin" x="-26" y="-16" width="52" height="32" rx="10" ry="10" fill="none" stroke="#008cff" stroke-width="1.2" stroke-opacity="0.08"/>
<rect id="roundedModuleSolid" x="-30" y="-18" width="60" height="36" rx="12" ry="12" fill="#008cff" fill-opacity="0.04" stroke="#00c8ff" stroke-width="1" stroke-opacity="0.08"/>

<g id="microCross">
<path d="M-4 0H4" stroke="#00c8ff" stroke-width="0.7" stroke-opacity="0.1" stroke-linecap="round"/>
<path d="M0 -4V4" stroke="#00c8ff" stroke-width="0.7" stroke-opacity="0.1" stroke-linecap="round"/>
</g>

<g id="alignmentMark">
<path d="M-6 0H6" stroke="#008cff" stroke-width="0.8" stroke-opacity="0.08" stroke-linecap="round"/>
<path d="M0 -6V6" stroke="#008cff" stroke-width="0.8" stroke-opacity="0.08" stroke-linecap="round"/>
<circle cx="0" cy="0" r="1.4" fill="#14f195" ​​fill-opacity="0.09"/>
</g>

<g id="shortSegment">
<path d="M0 0H12" stroke="#008cff" stroke-width="1.2" stroke-opacity="0.08" stroke-linecap="round"/>
</g>

<g id="shortSegmentGreen">
<path d="M0 0H10" stroke="#14f195" ​​stroke-width="1.1" stroke-opacity="0.09" stroke-linecap="round"/>
</g>

<g id="pcbTraceCurve">
<path d="M0 0 C20 -10 40 -10 60 0" fill="none" stroke="url(#traceBlueLight)" stroke-width="1.4" stroke-linecap="round" stroke-linejoin="round"/>
</g>

<g id="pcbTraceDiag">
<path d="M0 0 L40 -40" fill="none" stroke="url(#traceBlueDiagonal)" stroke-width="1.4" stroke-linecap="round" stroke-linejoin="round"/>
</g>

<g id="pcbTrace45">
<path d="M0 0 L30 0 L60 -30" fill="none" stroke="url(#traceBlueStrong)" stroke-width="1.6" stroke-linecap="round" stroke-linejoin="round"/>
</g>

<g id="pcbTraceLong">
<path d="M0 0 C50 -30 110 -30 160 0" fill="none" stroke="url(#traceBlueSoft)" stroke-width="1.3" stroke-linecap="round" stroke-linejoin="round"/>
</g>

<g id="pcbTraceLongGreen">
<path d="M0 0 C50 28 110 28 160 0" fill="none" stroke="url(#traceGreenSoft)" stroke-width="1.3" stroke-linecap="round" stroke-linejoin="round"/>
</g>

<g id="dashedTrace">
<path d="M0 0H80" fill="none" stroke="#008cff" stroke-width="1.4" stroke-opacity="0.09" stroke-linecap="round" stroke-linejoin="round" stroke-dasharray="6 8"/>
</g>

<g id="verticalGuides">
<path d="M0 0V60" fill="none" stroke="#008cff" stroke-width="1" stroke-opacity="0.05" stroke-linecap="round"/>
<path d="M8 0V60" fill="none" stroke="#008cff" stroke-width="0.5" stroke-opacity="0.04" stroke-linecap="round"/>
<path d="M16 0V60" fill="none" stroke="#008cff" stroke-width="0.7" stroke-opacity="0.05" stroke-linecap="round"/>
</g>

<g id="horizontalGuides">
<path d="M0 0H60" fill="none" stroke="#00c8ff" stroke-width="1" stroke-opacity="0.05" stroke-linecap="round"/>
<path d="M0 -8H60" fill="none" stroke="#00c8ff" stroke-width="0.6" stroke-opacity="0.04" stroke-linecap="round"/>
<path d="M0 8H60" fill="none" stroke="#00c8ff" stroke-width="0.6" stroke-opacity="0.04" stroke-linecap="round"/>
</g>

<g id="microClusterA">
<use href="#microDotSmall" x="0" y="0"/>
<use href="#microDotTiny" x="10" y="-6"/>
<use href="#microDotGreen" x="-8" y="4"/>
<use href="#padSmall" x="4" y="10"/>
<use href="#viaRing" x="-12" y="-10"/>
<use href="#shortSegment" x="2" y="-14"/>
</g>

<g id="microClusterB">
<use href="#microDotSmall" x="0" y="0"/>
<use href="#microDotTiny" x="-10" y="6"/>
<use href="#microDotGreen" x="8" y="-5"/>
<use href="#padMedium" x="-3" y="12"/>
<use href="#viaRingGreen" x="14" y="-8"/>
<use href="#shortSegmentGreen" x="-14" y="-12"/>
</g>

<g id="microClusterC">
<use href="#microDotTiny" x="0" y="0"/>
<use href="#microDotSmall" x="9" y="4"/>
<use href="#padLong" x="-6" y="10"/>
<use href="#viaRing" x="14" y="-6"/>
<use href="#shortSegment" x="-10" y="-10"/>
<use href="#shortSegmentGreen" x="6" y="-14"/>
</g>

<g id="pcbModuleA">
<use href="#roundedModuleThin" x="0" y="0"/>
<use href="#padSmall" x="-18" y="0"/>
<use href="#padSmall" x="18" y="0"/>
<use href="#padMedium" x="0" y="-12"/>
<use href="#viaRing" x="-20" y="-12"/>
<use href="#viaRing" x="20" y="-12"/>
<use href="#microDotSmall" x="0" y="12"/>
<use href="#microDotTiny" x="-12" y="14"/>
<use href="#microDotTiny" x="12" y="14"/>
</g>

<g id="pcbModuleB">
<use href="#roundedModuleSolid" x="0" y="0"/>
<use href="#padSmall" x="-20" y="0"/>
<use href="#padSmall" x="20" y="0"/>
<use href="#padLong" x="0" y="14"/>
<use href="#viaRingGreen" x="-24" y="-10"/>
<use href="#viaRingGreen" x="24" y="-10"/>
<use href="#microDotGreen" x="0" y="-14"/>
<use href="#microDotTiny" x="-14" y="16"/>
<use href="#microDotTiny" x="14" y="16"/>
</g>

<g id="pcbGridCornerTop">
<use href="#verticalGuides" x="0" y="0"/>
<use href="#verticalGuides" x="28" y="12"/>
<use href="#verticalGuides" x="56" y="24"/>
<use href="#horizontalGuides" x="0" y="0"/>
<use href="#horizontalGuides" x="-18" y="-26"/>
<use href="#horizontalGuides" x="-36" y="-52"/>
</g>

<g id="pcbGridCornerBottom">
<use href="#verticalGuides" x="0" y="0"/>
<use href="#verticalGuides" x="-28" y="-12"/>
<use href="#verticalGuides" x="-56" y="-24"/>
<use href="#horizontalGuides" x="0" y="0"/>
<use href="#horizontalGuides" x="18" y="26"/>
<use href="#horizontalGuides" x="36" y="52"/>
</g>

<g id="pcbRouteClusterTop">
<use href="#pcbTraceCurve" x="0" y="0"/>
<use href="#pcbTraceDiag" x="60" y="-10"/>
<use href="#pcbTrace45" x="20" y="20"/>
<use href="#pcbTraceLong" x="0" y="40"/>
<use href="#dashedTrace" x="0" y="-28"/>
<use href="#microClusterA" x="80" y="-20"/>
<use href="#microClusterB" x="20" y="34"/>
<use href="#pcbModuleA" x="120" y="10"/>
</g>

<g id="pcbRouteClusterTopAlt">
<use href="#pcbTraceCurve" x="0" y="0" transform="scale(1.2,1)"/>
<use href="#pcbTraceDiag" x="70" y="-14"/>
<use href="#pcbTrace45" x="10" y="26"/>
<use href="#pcbTraceLongGreen" x="0" y="46"/>
<use href="#dashedTrace" x="0" y="-34"/>
<use href="#microClusterB" x="90" y="-24"/>
<use href="#microClusterC" x="16" y="40"/>
<use href="#pcbModuleB" x="132" y="14"/>
</g>

<g id="pcbRouteClusterBottom">
<use href="#pcbTraceCurve" x="0" y="0" transform="scale(1,-1)"/>
<use href="#pcbTraceDiag" x="60" y="10" transform="scale(1,-1)"/>
<use href="#pcbTrace45" x="20" y="-20" transform="scale(1,-1)"/>
<use href="#pcbTraceLong" x="0" y="-40" transform="scale(1,-1)"/>
<use href="#dashedTrace" x="0" y="28"/>
<use href="#microClusterA" x="80" y="20"/>
<use href="#microClusterB" x="20" y="-34"/>
<use href="#pcbModuleA" x="120" y="-10"/>
</g>

<g id="pcbRouteClusterBottomAlt">
<use href="#pcbTraceCurve" x="0" y="0" transform="scale(1.1,-1)"/>
<use href="#pcbTraceDiag" x="70" y="14" transform="scale(1,-1)"/>
<use href="#pcbTrace45" x="10" y="-26" transform="scale(1,-1)"/>
<use href="#pcbTraceLongGreen" x="0" y="-46" transform="scale(1,-1)"/>
<use href="#dashedTrace" x="0" y="34"/>
<use href="#microClusterB" x="90" y="24"/>
<use href="#microClusterC" x="16" y="-40"/>
<use href="#pcbModuleB" x="132" y="-14"/>
</g>

<g id="cornerDecorationTopRightPrimary">
<use href="#pcbGridCornerTop" x="0" y="0"/>
<use href="#pcbRouteClusterTop" x="-140" y="20"/>
<use href="#pcbRouteClusterTopAlt" x="-200" y="120"/>
<use href="#microClusterA" x="-40" y="0"/>
<use href="#microClusterB" x="-10" y="80"/>
<use href="#microClusterC" x="-120" y="160"/>
<use href="#alignmentMark" x="-40" y="-40"/>
<use href="#microCross" x="-90" y="40"/>
</g>

<g id="cornerDecorationTopRightSecondary">
<use href="#pcbGridCornerTop" x="-120" y="180"/>
<use href="#pcbRouteClusterTop" x="-260" y="220"/>
<use href="#pcbRouteClusterTopAlt" x="-320" y="320"/>
<use href="#microClusterA" x="-200" y="200"/>
<use href="#microClusterB" x="-260" y="260"/>
<use href="#microClusterC" x="-180" y="320"/>
<use href="#alignmentMark" x="-220" y="220"/>
<use href="#microCross" x="-280" y="280"/>
</g>

<g id="cornerDecorationBottomLeftPrimary">
<use href="#pcbGridCornerBottom" x="0" y="0"/>
<use href="#pcbRouteClusterBottom" x="80" y="-60"/>
<use href="#pcbRouteClusterBottomAlt" x="140" y="-160"/>
<use href="#microClusterA" x="40" y="0"/>
<use href="#microClusterB" x="10" y="-80"/>
<use href="#microClusterC" x="120" y="-160"/>
<use href="#alignmentMark" x="40" y="40"/>
<use href="#microCross" x="90" y="-40"/>
</g>

<g id="cornerDecorationBottomLeftSecondary">
<use href="#pcbGridCornerBottom" x="120" y="-180"/>
<use href="#pcbRouteClusterBottom" x="260" y="-220"/>
<use href="#pcbRouteClusterBottomAlt" x="320" y="-320"/>
<use href="#microClusterA" x="200" y="-200"/>
<use href="#microClusterB" x="260" y="-260"/>
<use href="#microClusterC" x="180" y="-320"/>
<use href="#alignmentMark" x="220" y="-220"/>
<use href="#microCross" x="280" y="-280"/>
</g>

<g id="borderTraceTop">
<path d="M640 120 C1200 80 1800 80 2400 120" fill="none" stroke="url(#traceBlueVertical)" stroke-width="1.4" stroke-linecap="round" stroke-linejoin="round"/>
<path d="M720 150 C1280 110 1720 110 2320 150" fill="none" stroke="#008cff" stroke-width="1.1" stroke-opacity="0.06" stroke-linecap="round" stroke-linejoin="round" stroke-dasharray="10 12"/>
<path d="M700 90 C1240 50 1880 60 2440 100" fill="none" stroke="#00c8ff" stroke-width="0.9" stroke-opacity="0.05" stroke-linecap="round" stroke-linejoin="round"/>
</g>

<g id="borderTraceRight">
<path d="M3600 280 C3560 640 3560 920 3600 1280" fill="none" stroke="url(#traceBlueStrong)" stroke-width="1.5" stroke-linecap="round" stroke-linejoin="round"/>
<path d="M3560 320 C3520 680 3520 920 3560 1240" fill="none" stroke="#00c8ff" stroke-width="1" stroke-opacity="0.06" stroke-linecap="round" stroke-linejoin="round" stroke-dasharray="8 10"/>
<path d="M3520 360 C3480 720 3480 920 3520 1200" fill="none" trazo="#14f195" ​​trazo-ancho="1.2" trazo-opacidad="0.08" trazo-límite="redondo" trazo-unión="redondo"/>
</g>

<g id="borderTraceBottom">
<path d="M620 2040 C1180 2000 1800 2000 2360 2040" fill="none" stroke="url(#traceBlueVertical)" stroke-width="1.4" stroke-linecap="round" stroke-linejoin="round"/>
<path d="M700 2008 C1260 1968 1720 1968 2300 2008" fill="none" stroke="#008cff" stroke-width="1.1" stroke-opacity="0.06" stroke-linecap="round" stroke-linejoin="round" stroke-dasharray="10 12"/>
<path d="M680 2080 C1240 2040 1880 2040 2420 2080" relleno="ninguno" trazo="#00c8ff" ancho de trazo="0.9" opacidad de trazo="0.05" remate de línea de trazo="redondo" unión de línea de trazo="redondo"/>
</g>

<g id="borderTraceLeft">
<path d="M240 280 C280 640 280 920 240 1280" fill="none" stroke="url(#traceBlueStrong)" stroke-width="1.5" stroke-linecap="round" stroke-linejoin="round"/>
<path d="M280 320 C320 680 320 920 280 1240" fill="none" stroke="#00c8ff" stroke-width="1" stroke-opacity="0.06" stroke-linecap="round" stroke-linejoin="round" stroke-dasharray="8 10"/>
<path d="M320 360 C360 720 360 920 320 1200" fill="none" stroke="#14f195" stroke-width="1.2" stroke-opacity="0.08" stroke-linecap="round" stroke-linejoin="round"/>
</g>

<g id="microGridLayer">
<rect x="0" y="0" width="3840" height="2160" fill="url(#minorGrid)"/>
<rect x="0" y="0" width="3840" height="2160" fill="url(#majorGrid)"/>
</g>

<g id="borderMicroDetailsTop">
<use href="#microDotSmall" x="640" y="120"/>
<use href="#microDotTiny" x="720" y="150"/>
<use href="#microDotGreen" x="800" y="90"/>
<use href="#microDotSmall" x="1200" y="80"/>
<use href="#microDotTiny" x="1320" y="118"/>
<use href="#microDotGreen" x="1480" y="96"/>
<use href="#microDotSmall" x="1800" y="90"/>
<use href="#microDotTiny" x="1960" y="130"/>
<use href="#microDotGreen" x="2120" y="112"/>
<use href="#microDotSmall" x="2400" y="120"/>
<use href="#microDotTiny" x="2520" y="150"/>
<use href="#microDotGreen" x="2600" y="90"/>
<use href="#padSmall" x="880" y="110"/>
<use href="#padSmall" x="1680" y="110"/>
<use href="#padSmall" x="2280" y="110"/>
<use href="#viaRing" x="1040" y="130"/>
<use href="#viaRing" x="1900" y="130"/>
<use href="#viaRingGreen" x="2180" y="130"/>
<use href="#microCross" x="1520" y="140"/>
<use href="#microCross" x="1760" y="100"/>
<use <href="#alignmentMark" x="1360" y="120"/>
<use href="#alignmentMark" x="2000" y="120"/>
</g>

<g id="borderMicroDetailsRight">
<use href="#microDotSmall" x="3600" y="280"/>
<use href="#microDotTiny" x="3560" y="320"/>
<use href="#microDotGreen" x="3520" y="360"/>
<use href="#microDotSmall" x="3600" y="640"/>
<use href="#microDotTiny" x="3560" y="680"/>
<use href="#microDotGreen" x="3520" y="720"/>
<use href="#microDotSmall" x="3600" y="1000"/>
<use href="#microDotTiny" x="3560" y="1040"/>
<use href="#microDotGreen" x="3520" y="1080"/>
<use href="#microDotSmall" <use href="#microDotTiny" x="3560" y="1440"/>
<use href="#microDotGreen" x="3520" y="1480"/>
<use href=
"#padSmall" x="3560" y="520"/> <use
href="#padSmall" x="3520" y="900"/>
<use href="#padMedium" x="3560" y="1260"/>
<use href="#viaRing" x="3520" y="560"/>
<use href="#viaRingGreen" x="3480" y="940"/>
<use href="#microCross" x="3480" y="820"/>
<use href="#microCross" x="3480" y="1320"/>
<use href="#alignmentMark" x="3520" y="1160"/>
<use href="#alignmentMark" x="3560" y="1520"/>
</g>

<g id="borderMicroDetailsBottom">
<use href="#microDotSmall" x="620" y="2040"/>
<use href="#microDotTiny" x="700" y="2008"/>
<use href="#microDotGreen" x="680" y="2080"/>
<use href="#microDotSmall" x="1200" y="2000"/>
<use href="#microDotTiny" x="1320" y="2038"/>
<use href="#microDotGreen" x="1480" y="2016"/>
<use href="#microDotSmall" x="1800" y="2000"/>
<use href="#microDotTiny" x="1960" y="2040"/>
<use href="#microDotGreen" x="2120" y="2022"/>
<use <use href="#microDotSmall" x="2360" y="2040"/>
<use href="#microDotTiny" x="2440" y="2008"/>
<use href="#microDotGreen" x="2520" y="2080"/>
<use href="#padSmall" x="880" y="2020"/>
<use href="#padSmall" x="1680" y="2020"/>
<use href="#padSmall" x="2280" y="2020"/>
<use href="#viaRing" x="1040" y="2040"/>
<use href="#viaRing" x="1900" y="2040"/>
<use href="#viaRingGreen" x="2180" y="2040"/>
<use href="#microCross" x="1520" y="2010"/>
<use <href="#microCross" x="1760" y="2050"/>
<use href="#alignmentMark" x="1360" y="2030"/>
<use href="#alignmentMark" x="2000" y="2030"/>
</g>

<g id="borderMicroDetailsLeft">
<use href="#microDotSmall" x="240" y="280"/>
<use href="#microDotTiny" x="280" y="320"/>
<use href="#microDotGreen" x="320" y="360"/>
<use href="#microDotSmall" x="240" y="640"/>
<use href="#microDotTiny" x="280" y="680"/>
<use href="#microDotGreen" x="320" y="720"/>
<use href="#microDotSmall" x="240" y="1000"/>
<use href="#microDotTiny" x="280" y="1040"/>
<use href="#microDotGreen" x="320" y="1080"/>
<use href="#microDotSmall" x="240" y="1400"/>
<use href="#microDotTiny" x="280" y="1440"/>
<use href="#microDotGreen" x="320" y="1480"/>
<use href="#padSmall" x="280" y="520"/>
<use href="#padSmall" x="320" y="900"/>
<use href="#padMedium" x="280" y="1260"/>
<use href="#viaRing" x="320" y="560"/>
<use href="#viaRingGreen" x="360" y="940"/>
<use href="#microCross" x="360" y="820"/>
<use href="#microCross" x="360" y="1320"/>
<use href="#alignmentMark" x="320" y="1160"/>
<use href="#alignmentMark" x="280" y="1520"/>
</g>

<g id="topRightFineNetwork">
<use href="#pcbTraceCurve" x="3600" y="140" transform="scale(-1,1)"/>
<use href="#pcbTraceDiag" x="3520" y="120" transform="scale(-1,1)"/>
<use href="#pcbTrace45" x="3540" y="180" transform="scale(-1,1)"/>
<use href="#pcbTraceLong" x="3520" y="220" transform="scale(-1,1)"/>
<use href="#pcbTraceLongGreen" x="3520" y="260" transform="scale(-1,1)"/>
<use href="#dashedTrace" x="3540" y="110" transform="scale(-1,1)"/>
<use href="#pcbModuleA" x="3460" y="180"/>
<use href="#pcbModuleB" x="3400" y="260"/>
<use href="#microClusterA" x="3380" y="140"/>
<use href="#microClusterB" x="3320" y="220"/>
<use href="#microClusterC" x="3360" y="300"/>
<use href="#pcbGridCornerTop" x="3440" y="80"/>
</g>

<g id="topRightFineNetworkDepth">
<use href="#pcbTraceCurve" x="3600" y="340" transform="scale(-1,1)"/>
<use href="#pcbTraceDiag" x="3520" y="320" transform="scale(-1,1)"/>
<use href="#pcbTrace45" x="3540" y="380" transform="scale(-1,1)"/>
<use href="#pcbTraceLong" x="3520" y="420" transform="scale(-1,1)"/>
<use href="#pcbTraceLongGreen" x="3520" y="460" transform="scale(-1,1)"/>
<use href="#dashedTrace" x="3540" y="310" transform="scale(-1,1)"/>
<use href="#pcbModuleA"
<use href="#pcbModuleB" x="3400" y="460"/> <
use href="#microClusterA" x="3380" y="340"/>
<use href="#microClusterB" x="3320" y="420"/>
<use href="#microClusterC" x="3360" y="500"/>
</g>

<g id="bottomLeftFineNetwork">
<use href="#pcbTraceCurve" x="240" y="2020" transform="scale(1,-1)"/>
<use href="#pcbTraceDiag" x="320" y="2000" transform="scale(1,-1)"/>
<use href="#pcbTrace45" x="300" y="1940" transform="scale(1,-1)"/>
<use href="#pcbTraceLong" x="320" y="1900" transform="scale(1,-1)"/>
<use href="#pcbTraceLongGreen" x="320" y="1860" transform="scale(1,-1)"/>
<use href="#dashedTrace" x="300" y="2030" transform="scale(1,-1)"/>
<use href="#pcbModuleA" x="380" y="1940"/>
<use href="#pcbModuleB" x="440" y="1860"/>
<use href="#microClusterA" x="460" y="2020"/>
<use href="#microClusterB" x="520" y="1940"/>
<use href="#microClusterC" x="480" y="1860"/>
<use href="#pcbGridCornerBottom" x="360" y="2000"/>
</g>

<g id="bottomLeftFineNetworkDepth">
<use href="#pcbTraceCurve" x="240" y="1820" transform="scale(1,-1)"/>
<use href="#pcbTraceDiag" x="320" y="1800" transform="scale(1,-1)"/>
<use href="#pcbTrace45" x="300" y="1740" transform="scale(1,-1)"/>
<use href="#pcbTraceLong" x="320" y="1700" transform="scale(1,-1)"/>
<use href="#pcbTraceLongGreen" x="320" y="1660" transform="scale(1,-1)"/>
<use href="#dashedTrace" x="300" y="1830" transform="scale(1,-1)"/>
<use href="#pcbModuleA"
<use href="#pcbModuleB" x="440" y="1660"/>
<use href="#microClusterA" x="460" y="1820"/>
<use href="#microClusterB" x="520" y="1740"/>
<use href="#microClusterC" x="480" y="1660"/>
</g>

<g id="topBorderExtras">
<use href="#shortSegment" x="560" y="130"/>
<use href="#shortSegment" x="620" y="100"/>
<use href="#shortSegmentGreen" x="900" y="130"/>
<use href="#shortSegmentGreen" x="960" y="100"/>
<use href="#shortSegment" x="1300" y="110"/>
<use href="#shortSegmentGreen" x="1520" y="90"/>
<use href="#shortSegment" x="1820" y="110"/>
<use href="#shortSegmentGreen" x="2100" y="130"/>
<use href="#shortSegment" x="2320" y="100"/>
<use href="#shortSegmentGreen" x="2560" y="120"/>
</g>

<g id="bottomBorderExtras">
<use href="#shortSegment" x="560" y="2030"/>
<use href="#shortSegment" x="620" y="2060"/>
<use href="#shortSegmentGreen" x="900" y="2030"/>
<use href="#shortSegmentGreen" x="960" y="2060"/>
<use href="#shortSegment" x="1300" y="2050"/>
<use href="#shortSegmentGreen" x="1520" y="2070"/>
<use href="#shortSegment" x="1820" y="2050"/>
<use href="#shortSegmentGreen" x="2100" y="2030"/>
<use href="#shortSegment" x="2320" y="2060"/>
<use href="#shortSegmentGreen" x="2560" y="2040"/>
</g>

<g id="rightBorderExtras">
<use href="#shortSegment" x="3540" y="240" transform="rotate(90 3540 240)"/>
<use href="#shortSegmentGreen" x="3500" y="280" transform="rotate(90 3500 280)"/>
<use href="#shortSegment" x="3540" y="600" transform="rotate(90 3540 600)"/>
<use href="#shortSegmentGreen" x="3500" y="640" transform="rotate(90 3500 640)"/>
<use href="#shortSegment" x="3540" y="960" transform="rotate(90 3540 960)"/>
<use href="#shortSegmentGreen" x="3500" y="1000" transform="rotate(90 3500 1000)"/>
<use href="#shortSegment" x="3540" y="1360" transform="rotate(90 3540 1360)"/>
<use href="#shortSegmentGreen" x="3500" y="1400" transform="rotate(90 3500 1400)"/>
</g>

<g id="leftBorderExtras">
<use href="#shortSegment" x="280" y="240" transform="rotate(90 280 240)"/>
<use href="#shortSegmentGreen" x="320" y="280" transform="rotate(90 320 280)"/>
<use href="#shortSegment" x="280" y="600" transform="rotate(90 280 600)"/>
<use href="#shortSegmentGreen" x="320" y="640" transform="rotate(90 320 640)"/>
<use href="#shortSegment" x="280" y="960" transform="rotate(90 280 960)"/>
<use href="#shortSegmentGreen" x="320" y="1000" transform="rotate(90 320 1000)"/>
<use href="#shortSegment" x="280" y="1360" transform="rotate(90 280 1360)"/>
<use href="#shortSegmentGreen" x="320" y="1400" transform="rotate(90 320 1400)"/>
</g>

<g id="borderMicroSparse">
<use href="#microDotSmall" x="480" y="180"/>
<use href="#microDotTiny" x="520" y="220"/>
<use href="#microDotGreen" x="560" y="260"/>
<use href="#microDotSmall" x="3280" y="220"/>
<use href="#microDotTiny" x="3320" y="260"/>
<use href="#microDotGreen" x="3360" y="300"/>
<use href="#microDotSmall" x="520" y="1840"/>
<use href="#microDotTiny" x="560" y="1880"/>
<use href="#microDotGreen" x="600" y="1920"/>
<use href="#microDotSmall" x="3240" y="1840"/>
<use href="#microDotTiny" x="3280" y="1880"/>
<use href="#microDotGreen" x="3320" y="1920"/>
<use href="#microCross" x="500" y="300"/>
<use href="#microCross" x="3380" y="420"/>
<use href="#microCross" x="560" y="1760"/>
<use href="#microCross" x="3320" y="1760"/>
<use href="#alignmentMark" x="520" y="420"/>
<use href="#alignmentMark" x="3320" y="300"/>
<use href="#alignmentMark" x="580" y="1760"/>
<use href="#alignmentMark" x="3280" y="1860"/>
</g>

<g id="fineGridRing">
<circle cx="1920" cy="1080" r="880" fill="none" stroke="#008cff" stroke-width="0.6" stroke-opacity="0.025" stroke-dasharray="4 18"/>
<circle cx="1920" cy="1080" r="980" fill="none" stroke="#00c8ff" stroke-width="0.6" stroke-opacity="0.018" stroke-dasharray="2 24"/>
<circle cx="1920" cy="1080" r="1080" fill="none" stroke="#14f195" ​​stroke-width="0.8" stroke-opacity="0.02" stroke-dasharray="6 30"/>
</g>

<g id="fineGridArcs">
<path d="M640 1080 C960 720 1280 720 1600 1080" fill="none" stroke="#008cff" stroke-width="0.7" stroke-opacity="0.03" stroke-dasharray="5 20"/>
<path d="M2240 1080 C2560 1440 2880 1440 3200 1080" fill="none" stroke="#00c8ff" stroke-width="0.7" stroke-opacity="0.03" stroke-dasharray="5 20"/>
<path d="M840 860 C1200 640 1480 640 1760 860" fill="none" stroke="#14f195" <path d="M2080 1300 C2360 1520 2640 1520 3000 1300" fill="none" stroke="#14f195" ​​stroke-width="0.6
" stroke-opacity="0.025" stroke-dasharray="3 18"/>
</g>

<g id="fineGridRadials">
<path d="M1920 200 C1920 520 1920 640 1920 840" fill="none" stroke="#008cff" stroke-width="0.6" stroke-opacity="0.02" stroke-dasharray="6 18"/>
<path d="M1920 1320 C1920 1520 1920 1640 1920 1960" fill="none" stroke="#00c8ff" stroke-width="0.6" stroke-opacity="0.02" stroke-dasharray="6 18"/>
<path d="M1360 420 C1500 620 1600 760 1680 900" fill="none" stroke="#14f195" <path d="M2480 1740 C2380 1600 2300 1460 2240 1340" fill="none
" stroke="#14f195" ​​stroke-width="0.6" stroke-opacity="0.02" stroke-dasharray="4 16"/>
</g>
</defs>

<g opacity="0.16">
<use href="#microGridLayer"/>
</g>

<g opacity="0.32">
<use href="#fineGridRing"/>
<use href="#fineGridArcs"/>
<use href="#fineGridRadials"/>
</g>

<g opacity="0.9">
<use href="#borderTraceTop"/>
<use href="#borderTraceRight"/>
<use href="#borderTraceBottom"/>
<use href="#borderTraceLeft"/>
</g>

<g opacity="0.9">
<use href="#borderMicroDetailsTop"/>
<use href="#borderMicroDetailsRight"/>
<use href="#borderMicroDetailsBottom"/>
<use href="#borderMicroDetailsLeft"/>
</g>

<g opacity="0.9">
<use href="#topBorderExtras"/>
<use href="#bottomBorderExtras"/>
<use href="#rightBorderExtras"/>
<use href="#leftBorderExtras"/>
</g>

<g opacity="0.9">
<use href="#borderMicroSparse"/>
</g>

<g opacity="0.95">
<g transform="translate(3600,120)">
<use href="#cornerDecorationTopRightPrimary"/>
</g>
<g transform="translate(3720,260)">
<use href="#cornerDecorationTopRightSecondary"/>
</g>
<use href="#topRightFineNetwork"/>
<use href="#topRightFineNetworkDepth"/>
</g>

<g opacity="0.95">
<g transform="translate(240,2040)">
<use href="#cornerDecorationBottomLeftPrimary"/>
</g>
<g transform="translate(120,1860)">
<use href="#cornerDecorationBottomLeftSecondary"/>
</g>
<use href="#bottomLeftFineNetwork"/>
<use href="#bottomLeftFineNetworkDepth"/>
</g>

<g opacity="0.7">
<use href="#microClusterA" x="480" y="480"/>
<use href="#microClusterB" x="520" y="520"/>
<use href="#microClusterC" x="560" y="560"/>

<use href="#microClusterA" x="3280" y="480"/>
<use href="#microClusterB" x="3320" y="520"/>
<use href="#microClusterC" x="3360" y="560"/>

<use href="#microClusterA" x="520" y="1600"/>
<use href="#microClusterB" x="560" y="1640"/>
<use href="#microClusterC" x="600" y="1680"/>

<use href="#microClusterA" x="3240" y="1600"/>
<use href="#microClusterB" x="3280" y="1640"/>
<use href="#microClusterC" x="3320" y="1680"/>

<use href="#microCross" x="480" y="720"/>
<use href="#microCross" x="620" y="860"/>
<use href="#microCross" x="760" y="720"/>

<use href="#microCross" x="3080" y="720"/>
<use href="#microCross" x="3220" y="860"/>
<use href="#microCross" x="3360" y="720"/>

<use href="#microCross" x="520" y="1320"/>
<use href="#microCross" x="640" y="1460"/>
<use href="#microCross" x="780" y="1320"/>

<use href="#microCross" x="3040" y="1320"/>
<use href="#microCross" x="3180" y="1460"/>
<use href="#microCross" x="3320" y="1320"/>

<use href="#alignmentMark" x="720" y="520"/>
<use href="#alignmentMark" x="840" y="640"/>
<use href="#alignmentMark" x="960" y="520"/>

<use href="#alignmentMark" x="2880" y="520"/>
<use href="#alignmentMark" x="3000" y="640"/>
<use href="#alignmentMark" x="3120" y="520"/>

<use href="#alignmentMark" x="760" y="1560"/>
<use href="#alignmentMark" x="880" y="1680"/>
<use href="#alignmentMark" x="1000" y="1560"/>

<use href="#alignmentMark" x="2840" y="1560"/>
<use href="#alignmentMark" x="2960" y="1680"/>
<use href="#alignmentMark" x="3080" y="1560"/>
</g>

<g opacity="0.6">
<use href="#viaRing" x="880" y="420"/>
<use href="#viaRing" x="920" y="460"/>
<use href="#viaRingGreen" x="960" y="500"/>

<use href="#viaRing" x="2960" y="420"/>
<use href="#viaRing" x="3000" y="460"/>
<use href="#viaRingGreen" x="3040" y="500"/>

<use href="#viaRing" x="880" y="1440"/>
<use href="#viaRing" x="920" y="1480"/>
<use href="#viaRingGreen" x="960" y="1520"/>

<use href="#viaRing" x="2960" y="1440"/>
<use href="#viaRing" x="3000" y="1480"/>
<use href="#viaRingGreen" x="3040" y="1520"/>

<use href="#padSmall" x="1040" y="440"/>
<use href="#padSmall" x="1120" y="520"/>
<use href="#padMedium" x="1200" y="440"/>

<use href="#padSmall" x="2800" y="440"/>
<use href="#padSmall" x="2720" y="520"/>
<use href="#padMedium" x="2640" y="440"/>

<use href="#padSmall" x="1040" y="1460"/>
<use href="#padSmall" x="1120" y="1540"/>
<use href="#padMedium" x="1200" y="1460"/>

<use href="#padSmall" x="2800" y="1460"/>
<use href="#padSmall" x="2720" y="1540"/>
<use href="#padMedium" x="2640" y="1460"/>
</g>

<g opacity="0.5">
<use href="#shortSegment" x="1160" y="600"/>
<use href="#shortSegmentGreen" x="1240" y="640"/>
<use href="#shortSegment" x="1320" y="600"/>

<use href="#shortSegment" x="2600" y="600"/>
<use href="#shortSegmentGreen" x="2520" y="640"/>
<use href="#shortSegment" x="2440" y="600"/>

<use href="#shortSegment" x="1160" y="1380"/>
<use href="#shortSegmentGreen" x="1240" y="1340"/>
<use href="#shortSegment" x="1320" y="1380"/>

<use href="#shortSegment" x="2600" y="1380"/>
<use href="#shortSegmentGreen" x="2520" y="1340"/>
<use href="#shortSegment" x="2440" y="1380"/>
</g>

<g opacity="0.4">
<path d="M1040 380 L1120 340 L1200 380" fill="none" stroke="#008cff" stroke-width="1.1" stroke-opacity="0.06" stroke-linecap="round" stroke-linejoin="round"/>
<path d="M2720 380 L2800 340 L2880 380" fill="none" stroke="#008cff" stroke-width="1.1" stroke-opacity="0.06" stroke-linecap="round" stroke-linejoin="round"/>

<path d="M1040 1560 L1120 1600 L1200 1560" fill="none" stroke="#008cff" stroke-width="1.1" stroke-opacity="0.06" stroke-linecap="round" stroke-linejoin="round"/>
<path d="M2720 1560 L2800 1600 L2880 1560" fill="none" stroke="#008cff" stroke-width="1.1" stroke-opacity="0.06" stroke-linecap="round" stroke-linejoin="round"/>

<path d="M960 720 C1040 680 1120 680 1200 720" fill="none" stroke="#00c8ff" stroke-width="0.9" stroke-opacity="0.05" stroke-linecap="round" stroke-linejoin="round"/>
<path d="M2640 720 C2720 680 2800 680 2880 720" fill="none" stroke="#00c8ff" stroke-width="0.9" stroke-opacity="0.05" stroke-linecap="round" stroke-linejoin="round"/>

<path d="M960 1320 C1040 1360 1120 1360 1200 1320" fill="none" stroke="#00c8ff" stroke-width="0.9" stroke-opacity="0.05" stroke-linecap="round" stroke-linejoin="round"/>
<path d="M2640 1320 C2720 1360 2800 1360 2880 1320" fill="none" stroke="#00c8ff" stroke-width="0.9" stroke-opacity="0.05" stroke-linecap="round" stroke-linejoin="round"/>
</g>

<g opacidad="0.28">
<ruta d="M840 280 C920 260 1000 260 1080 280" relleno="ninguno" trazo="#008cff" ancho de trazo="0.9" opacidad de trazo="0.04" remate de línea de trazo="redondo" unión de línea de trazo="redondo"/>
<ruta d="M2760 280 C2840 260 2920 260 3000 280" relleno="ninguno" trazo="#008cff" ancho de trazo="0.9" opacidad de trazo="0.04" remate de línea de trazo="redondo" unión de línea de trazo="redondo"/>

<path d="M840 1820 C920 1840 1000 1840 1080 1820" fill="none" stroke="#008cff" stroke-width="0.9" stroke-opacity="0.04" stroke-linecap="round" stroke-linejoin="round"/>
<path d="M2760 1820 C2840 1840 2920 1840 3000 1820" fill="none" stroke="#008cff" stroke-width="0.9" stroke-opacity="0.04" stroke-linecap="round" stroke-linejoin="round"/>
</g>

<g opacity="0.2">
<circle cx="840" cy="280" r="3" fill="#14f195" ​​fill-opacity="0.08"/>
<circle cx="1080" cy="280" r="3" fill="#14f195" ​​fill-opacity="0.08"/>
<circle cx="2760" cy="280" r="3" fill="#14f195" ​​fill-opacity="0.08"/>
<circle cx="3000" cy="280" r="3" fill="#14f195" ​​fill-opacity="0.08"/>

<circle cx="840" cy="1820" r="3" fill="#14f195" ​​fill-opacity="0.08"/>
<circle cx="1080" cy="1820" r="3" fill="#14f195" ​​fill-opacity="0.08"/>
<circle cx="2760" cy="1820" r="3" fill="#14f195" ​​fill-opacity="0.08"/>
<circle cx="3000" cy="1820" r="3" fill="#14f195" ​​fill-opacity="0.08"/>
</g>

<g opacity="0.18">
<path d="M520 360 L600 320 L680 360 L760 320" fill="none" stroke="#008cff" stroke-width="0.8" stroke-opacity="0.05" stroke-linecap="round" stroke-linejoin="round"/>
<path d="M3080 360 L3160 320 L3240 360 L3320 320" fill="none" stroke="#008cff" stroke-width="0.8" stroke-opacity="0.05" stroke-linecap="round" stroke-linejoin="round"/>

<path d="M520 1740 L600 1780 L680 1740 L760 1780" fill="none" stroke="#008cff" stroke-width="0.8" stroke-opacity="0.05" stroke-linecap="round" stroke-linejoin="round"/>
<path d="M3080 1740 L3160 1780 L3240 1740 L3320 1780" fill="none" stroke="#008cff" stroke-width="0.8" stroke-opacity="0.05" stroke-linecap="round" stroke-linejoin="round"/>
</g>

<g opacidad="0.12">
<ruta d="M520 360 C520 420 520 460 520 520" relleno="ninguno" trazo="#00c8ff" ancho de trazo="0.7" opacidad de trazo="0.05" remate de línea de trazo="redondo" unión de línea de trazo="redondo" raya de guiones de trazo="4 16"/>
<ruta d="M760 320 C760 380 760 420 760 480" relleno="ninguno" trazo="#00c8ff" ancho de trazo="0.7" opacidad de trazo="0.05" remate de línea de trazo="redondo" unión de línea de trazo="redondo" raya de guiones de trazo="4 16"/>
<ruta d="M3080 360 C3080 420 3080 460 3080 520" relleno="ninguno" trazo="#00c8ff" ancho-trazo="0.7" opacidad-trazo="0.05" remate-línea="redondo" unión-línea="redondo" raya-rayo="4 16"/>
<ruta d="M3320 320 C3320 380 3320 420 3320 480" relleno="ninguno" trazo="#00c8ff" ancho-trazo="0.7" opacidad-trazo="0.05" remate-línea="redondo" unión-línea="redondo" raya-rayo="4 16"/>

<path d="M520 1740 C520 1680 520 1640 520 1580" fill="none" stroke="#00c8ff" stroke-width="0.7" stroke-opacity="0.05" stroke-linecap="round" stroke-linejoin="round" stroke-dasharray="4 16"/>
<path d="M760 1780 C760 1720 760 1680 760 1620" fill="none" stroke="#00c8ff" stroke-width="0.7" stroke-opacity="0.05" stroke-linecap="round" stroke-linejoin="round" stroke-dasharray="4 16"/>
<path d="M3080 1740 C3080 1680 3080 1640 3080 1580" relleno="ninguno" trazo="#00c8ff" ancho-trazo="0.7" opacidad-trazo="0.05" remate-línea="redondo" unión-línea="redondo" raya-rayo="4 16"/>
<ruta d="M3320 1780 C3320 1720 3320 1680 3320 1620" relleno="ninguno" trazo="#00c8ff" ancho-trazo="0.7" opacidad-trazo="0.05" remate-línea="redondo" unión-línea="redondo" raya-rayo="4 16"/>
</g>

<g opacity="0.08">
<path d="M640 520 C720 540 800 540 880 520" fill="none" stroke="#14f195" ​​stroke-width="0.7" stroke-opacity="0.04" stroke-linecap="round" stroke-linejoin="round"/>
<path d="M2960 520 C3040 540 3120 540 3200 520" fill="none" stroke="#14f195" ​​stroke-width="0.7" stroke-opacity="0.04" stroke-linecap="round" stroke-linejoin="round"/>

<path d="M640 1560 C720 1540 800 1540 880 1560" fill="none" stroke="#14f195" ​​stroke-width="0.7" stroke-opacity="0.04" stroke-linecap="round" stroke-linejoin="round"/>
<path d="M2960 1560 C3040 1540 3120 1540 3200 1560" fill="none" stroke="#14f195" ​​stroke-width="0.7" stroke-opacity="0.04" stroke-linecap="round" stroke-linejoin="round"/>
</g>

<g opacidad="0.06">
<ruta d="M560 600 H720" relleno="ninguno" trazo="#008cff" ancho de trazo="0.6" opacidad de trazo="0.04" remate de línea de trazo="redondo" unión de línea de trazo="redondo" raya de guiones de trazo="3 12"/>
<ruta d="M3120 600 H3280" relleno="ninguno" trazo="#008cff" ancho de trazo="0.6" opacidad de trazo="0.04" remate de línea de trazo="redondo" unión de línea de trazo="redondo" raya de guiones de trazo="3 12"/>

<path d="M560 1380 H720" fill="none" stroke="#008cff" stroke-width="0.6" stroke-opacity="0.04" stroke-linecap="round" stroke-linejoin="round" stroke-dasharray="3 12"/>
<path d="M3120 1380 H3280" fill="none" stroke="#008cff" stroke-width="0.6" stroke-opacity="0.04" stroke-linecap="round" stroke-linejoin="round" stroke-dasharray="3 12"/>

<path d="M720 640 H840" fill="none" stroke="#00c8ff" stroke-width="0.6" stroke-opacity="0.04" stroke-linecap="round" stroke-linejoin="round" stroke-dasharray="3 10"/>
<path d="M3000 640 H3120" fill="none" stroke="#00c8ff" stroke-width="0.6" stroke-opacity="0.04" stroke-linecap="round" stroke-linejoin="round" stroke-dasharray="3 10"/>

<path d="M720 1340 H840" fill="none" stroke="#00c8ff" stroke-width="0.6" stroke-opacity="0.04" stroke-linecap="round" stroke-linejoin="round" stroke-dasharray="3 10"/>
<path d="M3000 1340 H3120" fill="none" stroke="#00c8ff" stroke-width="0.6" stroke-opacity="0.04" stroke-linecap="round" stroke-linejoin="round" stroke-dasharray="3 10"/>
</g>

<g opacity="0.05">
<circle cx="720" cy="600" r="2.2" fill="#008cff" fill-opacity="0.06"/>
<circle cx="840" cy="640" r="2.2" fill="#008cff" fill-opacity="0.06"/>
<circle cx="720" cy="1380" r="2.2" fill="#008cff" fill-opacity="0.06"/>
<circle cx="840" cy="1340" r="2.2" fill="#008cff" fill-opacity="0.06"/>

<circle cx="3120" cy="600" r="2.2" fill="#008cff" fill-opacity="0.06"/>
<circle cx="3000" cy="640" r="2.2" fill="#008cff" fill-opacity="0.06"/>
<circle cx="3120" cy="1380" r="2.2" fill="#008cff" fill-opacity="0.06"/>
<circle cx="3000" cy="1340" r="2.2" fill="#008cff" fill-opacity="0.06"/>
</g>

<g opacidad="0.04">
<ruta d="M880 520 C920 560 960 600 1000 640" relleno="ninguno" trazo="#00c8ff" ancho de trazo="0.5" opacidad de trazo="0.03" remate de línea de trazo="redondo" unión de línea de trazo="redondo"/>
<ruta d="M2800 520 C2760 560 2720 600 2680 640" relleno="ninguno" trazo="#00c8ff" ancho de trazo="0.5" opacidad de trazo="0.03" remate de línea de trazo="redondo" unión de línea de trazo="redondo"/>

<path d="M880 1560 C920 1520 960 1480 1000 1440" fill="none" stroke="#00c8ff" stroke-width="0.5" stroke-opacity="0.03" stroke-linecap="round" stroke-linejoin="round"/>
<path d="M2800 1560 C2760 1520 2720 1480 2680 1440" fill="none" stroke="#00c8ff" stroke-width="0.5" stroke-opacity="0.03" stroke-linecap="round" stroke-linejoin="round"/>
</g>

<g opacidad="0.035">
<ruta d="M640 520 C600 560 560 600 520 640" relleno="ninguno" trazo="#008cff" ancho de trazo="0.5" opacidad de trazo="0.03" remate de línea de trazo="redondo" unión de línea de trazo="redondo"/>
<ruta d="M2960 520 C3000 560 3040 600 3080 640" relleno="ninguno" trazo="#008cff" ancho de trazo="0.5" opacidad de trazo="0.03" remate de línea de trazo="redondo" unión de línea de trazo="redondo"/>

<path d="M640 1560 C600 1520 560 1480 520 1440" fill="none" stroke="#008cff" stroke-width="0.5" stroke-opacity="0.03" stroke-linecap="round" stroke-linejoin="round"/>
<path d="M2960 1560 C3000 1520 3040 1480 3080 1440" fill="none" stroke="#008cff" stroke-width="0.5" stroke-opacity="0.03" stroke-linecap="round" stroke-linejoin="round"/>
</g>

<g opacity="0.03">
<circle cx="520" cy="640" r="1.8" fill="#14f195" ​​fill-opacity="0.06"/>
<circle cx="3080" cy="640" r="1.8" fill="#14f195" ​​fill-opacity="0.06"/>
<circle cx="520" cy="1440" r="1.8" fill="#14f195" ​​fill-opacity="0.06"/>
<circle cx="3080" cy="1440" r="1.8" fill="#14f195" ​​fill-opacity="0.06"/>
</g>
</svg>